<svg xmlns="http://www.w3.org/2000/svg" viewBox="0 0 108 108"><defs><style>.cls-1{fill:aqua;}.cls-2{fill:#c6ffee;}.cls-3{fill:#c69c6d;}.cls-4{fill:#94ebee;opacity:0.5;}.cls-5{fill:#f0ff8a;}.cls-6{fill:#d9e07c;}.cls-7{fill:#29abe2;}</style></defs><title>logo</title><g id="Sky"><circle class="cls-1" cx="54" cy="54" r="54"/></g><g id="Bottle"><rect class="cls-2" x="42.84" y="48.89" width="20" height="41.57" rx="3" transform="translate(23.63 -14.09) rotate(18.36)"/><rect class="cls-2" x="57.41" y="32.84" width="8" height="22" rx="3" transform="translate(15.93 -18.11) rotate(18.36)"/><path class="cls-3" d="M64.24,39l6.54-7a1.28,1.28,0,0,0-.53-2.08L62.64,27.4A1.27,1.27,0,0,0,61,28.75L62,38.25A1.28,1.28,0,0,0,64.24,39Z" transform="translate(-1 -1)"/><rect class="cls-2" x="56.71" y="31.38" width="16" height="5" rx="2" transform="matrix(0.95, 0.31, -0.31, 0.95, 12.96, -19.66)"/><rect class="cls-4" x="57.4" y="33.33" width="14" height="3" rx="1.5" transform="translate(13.24 -19.51) rotate(18.36)"/><path class="cls-5" d="M66.45,59.91,44.88,86.2a4,4,0,0,1-5.62.56,3.19,3.19,0,0,1-.49-4.45h0L60.27,56.1a3.19,3.19,0,0,0-.6,2.21,2.78,2.78,0,0,0,.21.86,3.13,3.13,0,0,0,.94,1.3,3.58,3.58,0,0,0,1.27.69,3.77,3.77,0,0,0,1.66.2A4,4,0,0,0,66.45,59.91Z" transform="translate(-1 -1)"/><path class="cls-5" d="M62.09,61.14v0a3.58,3.58,0,0,1-1.27-.69,3.13,3.13,0,0,1-.94-1.3l0,0L61.72,57A1.32,1.32,0,0,0,62,58.72a1.62,1.62,0,0,0,1.2.37,1.66,1.66,0,0,0,1.11-.59Z" transform="translate(-1 -1)"/><path class="cls-6" d="M60.27,56.1a.64.64,0,0,1,.1-.13,2.55,2.55,0,0,1,3.6-.36A2,2,0,0,1,64.72,57a2.09,2.09,0,0,1-.46,1.51,1.66,1.66,0,0,1-1.11.59,1.62,1.62,0,0,1-1.2-.37A1.32,1.32,0,0,1,61.72,57l-1.8,2.19,0,0a2.78,2.78,0,0,1-.21-.86A3.19,3.19,0,0,1,60.27,56.1Z" transform="translate(-1 -1)"/><rect class="cls-4" x="27.18" y="65.77" width="35" height="3" rx="1.5" transform="translate(121.59 45.05) rotate(108.36)"/></g><g id="Water"><path class="cls-7" d="M34.87,64.33c0,4.88,9.22,8.83,20.62,8.83s20.61-4,20.61-8.83c0,4.88,9.21,8.83,20.61,8.83a44.17,44.17,0,0,0,9.48-1A54,54,0,0,1,3.72,71.93a43.51,43.51,0,0,0,10.54,1.23C25.66,73.16,34.87,69.21,34.87,64.33Z" transform="translate(-1 -1)"/></g></svg>